<svg width="90" height="90" viewBox="0 0 90 90" fill="none" xmlns="http://www.w3.org/2000/svg">
<path d="M14.6724 -4.12617e-06C6.27563 -4.12617e-06 0.254806 1.30495 0 1.36277L0.335175 5.34691C15.1071 5.34691 25.7039 9.74885 31.827 18.4214C38.7561 28.2333 38.0063 40.9989 37.4866 45.4118H11.8352L50.9183 90L90 45.4118H65.3523C62.2471 5.96006 32.386 -4.12617e-06 14.6724 -4.12617e-06ZM20.3498 49.4371H40.4018L40.7092 47.8597C40.8512 47.1137 44.123 29.4492 34.5988 15.9251C30.7516 10.4683 25.4144 6.52683 18.6438 4.12531C38.2186 5.10571 60.0854 13.8742 61.9613 47.5518L62.0658 49.4366H81.4855L50.9183 84.3113L20.3498 49.4371Z" fill="#F3DFC1"/>
</svg>
