<svg width="58" height="41" viewBox="0 0 58 41" fill="none" xmlns="http://www.w3.org/2000/svg">
<path d="M56.8446 1.54682H53.0277V1.15527C53.0277 0.837189 52.8966 0.533209 52.6653 0.315073C52.4337 0.0965913 52.1214 -0.016058 51.8054 0.0018504L29 1.32383L6.19456 0.0018504C5.87683 -0.016058 5.56592 0.0965913 5.33473 0.315073C5.10342 0.533324 4.97229 0.837305 4.97229 1.15527V1.54682H1.15538C0.517379 1.54682 0 2.0642 0 2.7022V39.6073C0 40.2453 0.517379 40.7627 1.15538 40.7627H56.8446C57.4826 40.7627 58 40.2453 58 39.6073V2.7022C58 2.0642 57.4826 1.54682 56.8446 1.54682ZM30.1554 3.57162L50.717 2.37974V34.0973L30.1554 35.2892V3.57162ZM7.28304 2.37962L27.8446 3.57162V35.2892L7.28304 34.0972V2.37962ZM55.6892 38.4519H2.31076V3.85758H4.97229V35.1875C4.97229 35.7996 5.44969 36.3056 6.06077 36.3409L28.9331 37.667C28.9554 37.6682 28.9775 37.6688 28.9995 37.6688C28.9997 37.6688 28.9998 37.6688 28.9999 37.6688H29H29.0001C29.0002 37.6688 29.0003 37.6688 29.0005 37.6688C29.0226 37.6688 29.0448 37.6681 29.0669 37.667L51.9392 36.3409C52.5503 36.3055 53.0277 35.7995 53.0277 35.1875V3.85758H55.6892V38.4519Z" fill="#F3DFC1"/>
<path d="M24.7577 6.41051L16.6916 5.94293C16.0543 5.90515 15.5083 6.3926 15.4712 7.02945C15.4343 7.66652 15.9209 8.2129 16.5577 8.24987L24.6238 8.71745C24.6465 8.71884 24.6693 8.71942 24.6917 8.71942C25.2992 8.71942 25.8085 8.24525 25.8442 7.63094C25.8812 6.99386 25.3946 6.44737 24.7577 6.41051Z" fill="#F3DFC1"/>
<path d="M10.7013 7.91031L12.6903 8.02561C12.713 8.027 12.7358 8.02758 12.7582 8.02758C13.3657 8.02758 13.875 7.55341 13.9107 6.93909C13.9476 6.30202 13.4611 5.75564 12.8242 5.71878L10.8352 5.60348C10.195 5.5665 9.65186 6.05315 9.61477 6.68999C9.5778 7.32695 10.0642 7.87345 10.7013 7.91031Z" fill="#F3DFC1"/>
<path d="M24.7575 11.7141L10.8352 10.9071C10.195 10.8703 9.65184 11.3568 9.61476 11.9936C9.5779 12.6307 10.0643 13.1771 10.7013 13.2141L24.6236 14.0211C24.6463 14.0225 24.6691 14.0231 24.6915 14.0231C25.299 14.0231 25.8083 13.5489 25.844 12.9346C25.881 12.2975 25.3946 11.751 24.7575 11.7141Z" fill="#F3DFC1"/>
<path d="M24.7575 17.1284L10.8352 16.3213C10.195 16.2847 9.65184 16.771 9.61476 17.4079C9.5779 18.0449 10.0643 18.5913 10.7013 18.6283L24.6236 19.4353C24.6463 19.4367 24.6691 19.4373 24.6915 19.4373C25.299 19.4373 25.8083 18.9631 25.844 18.3488C25.881 17.7117 25.3946 17.1653 24.7575 17.1284Z" fill="#F3DFC1"/>
<path d="M24.7575 22.4323L10.8352 21.6252C10.195 21.5886 9.65184 22.0749 9.61476 22.7118C9.5779 23.3488 10.0643 23.8952 10.7013 23.9322L24.6236 24.7392C24.6463 24.7406 24.6691 24.7412 24.6915 24.7412C25.299 24.7412 25.8083 24.267 25.844 23.6527C25.881 23.0156 25.3946 22.4691 24.7575 22.4323Z" fill="#F3DFC1"/>
<path d="M47.3858 31.6251L38.7672 32.1247C38.1301 32.1615 37.6437 32.708 37.6807 33.3451C37.7164 33.9593 38.2256 34.4336 38.8332 34.4336C38.8556 34.4336 38.8784 34.433 38.9011 34.4316L47.5197 33.932C48.1567 33.8952 48.6431 33.3487 48.6062 32.7116C48.5691 32.0748 48.0274 31.5878 47.3858 31.6251Z" fill="#F3DFC1"/>
<path d="M35.3419 22.3233L33.4635 22.4321C32.8265 22.469 32.34 23.0155 32.377 23.6526C32.4127 24.2668 32.9219 24.741 33.5295 24.741C33.5519 24.741 33.5746 24.7405 33.5974 24.7391L35.4758 24.6302C36.1128 24.5934 36.5993 24.0469 36.5623 23.4098C36.5252 22.773 35.9806 22.286 35.3419 22.3233Z" fill="#F3DFC1"/>
<path d="M47.3858 16.3213L33.4635 17.1284C32.8264 17.1652 32.34 17.7117 32.377 18.3488C32.4127 18.963 32.9219 19.4373 33.5295 19.4373C33.5519 19.4373 33.5746 19.4367 33.5974 19.4353L47.5197 18.6283C48.1568 18.5914 48.6432 18.0449 48.6062 17.4079C48.5691 16.771 48.0275 16.2847 47.3858 16.3213Z" fill="#F3DFC1"/>
<path d="M47.3858 10.9071L33.4635 11.7141C32.8264 11.751 32.34 12.2975 32.377 12.9346C32.4127 13.5488 32.9219 14.0231 33.5295 14.0231C33.5519 14.0231 33.5746 14.0225 33.5974 14.0211L47.5197 13.2141C48.1568 13.1772 48.6432 12.6307 48.6062 11.9936C48.5691 11.3567 48.0275 10.8692 47.3858 10.9071Z" fill="#F3DFC1"/>
<path d="M47.3858 5.60336L33.4635 6.41039C32.8264 6.44725 32.34 6.99374 32.377 7.63082C32.4127 8.24502 32.9219 8.7193 33.5295 8.7193C33.5519 8.7193 33.5746 8.71872 33.5974 8.71733L47.5197 7.9103C48.1568 7.87345 48.6432 7.32695 48.6062 6.68988C48.5691 6.05303 48.0275 5.56604 47.3858 5.60336Z" fill="#F3DFC1"/>
</svg>
