<svg width="21" height="21" viewBox="0 0 21 21" fill="none" xmlns="http://www.w3.org/2000/svg">
<path d="M20.7353 19.5032L14.7101 13.4688C15.8979 12.0431 16.6124 10.2211 16.6124 8.23116C16.6124 3.69131 12.8896 0 8.31048 0C3.73133 0 0 3.69562 0 8.23546C0 12.7753 3.72272 16.4666 8.30188 16.4666C10.2472 16.4666 12.0375 15.799 13.4577 14.6834L19.5045 20.7351C19.8574 21.0883 20.3824 21.0883 20.7353 20.7351C21.0882 20.3819 21.0882 19.8564 20.7353 19.5032ZM1.76453 8.23546C1.76453 4.66906 4.69966 1.77028 8.30188 1.77028C11.9041 1.77028 14.8392 4.66906 14.8392 8.23546C14.8392 11.8019 11.9041 14.7006 8.30188 14.7006C4.69966 14.7006 1.76453 11.7976 1.76453 8.23546Z" fill="#5E0B15"/>
</svg>
